# xmcd CD database file
#
# Track frame offsets:
#	150
#	76307
#	142103
#	193426
#	248380
#
# Disc length: 4295 seconds
#
# Revision: 1
# Processed by: cddbd v1.5.2PL0 Copyright (c) Steve Scherf et al.
# Submitted via: CDex 1.70beta2
#
DISCID=4010c505
DTITLE=Twain, Mark - Tom Sawyer
DYEAR=2006
DGENRE=Hörbuch
TTITLE0=Tom Sawyer 01
TTITLE1=Tom Sawyer 02
TTITLE2=Tom Sawyer 03
TTITLE3=Tom Sawyer 04
TTITLE4=Tom Sawyer 05
EXTD=YEAR: 2006
EXTT0=
EXTT1=
EXTT2=
EXTT3=
EXTT4=
PLAYORDER=
